# xmcd
#
# Track frame offsets:
#	150
#	67992
#	112030
#	165169
#	198357
#
# Disc length: 2693 seconds
#
# Revision: 0
# Processed by: cddbd v1.5.2PL0 Copyright (c) Steve Scherf et al.
# Submitted via: audiograbber 1.83.01
#
DISCID=380a8305
DTITLE=Mike Bloomfield - Live In San Francsico 1969
DYEAR=1969
DGENRE=Blues
TTITLE0=Born In Chicago (Live in San Francisco 1969)
TTITLE1=Blues On The Westside (Live in San Francisco 1969)
TTITLE2=It's About Time (Live in San Francisco 1969)
TTITLE3=Sweet Little Angel (Live in San Francisco 1969)
TTITLE4=Instrumental (Live in San Francisco 1969)
EXTD=Bootleg
EXTT0=
EXTT1=
EXTT2=
EXTT3=
EXTT4=
PLAYORDER=
